# xmcd
#
# Track frame offsets:
#	150
#	17720
#	32472
#	48827
#	63590
#	81625
#	95857
#	115217
#	131460
#	148152
#	164817
#	180060
#	195410
#
# Disc length: 2912 seconds
#
# Revision: 1
# Processed by: cddbd v1.5.1PL0 Copyright (c) Steve Scherf et al.
# Submitted via: audiograbber 1.83.01
#
DISCID=b20b5e0d
DTITLE=Lisa Brokop - Hey, Do You Know Me
DYEAR=2005
DGENRE=Country
TTITLE0=Hey, Do You Know Me
TTITLE1=Wildflower
TTITLE2=What I'd Miss
TTITLE3=Ladylike
TTITLE4=Let Me Love Again
TTITLE5=One Bad Day
TTITLE6=Pearl
TTITLE7=Just A Girl
TTITLE8=Paper, Rock, Scissors
TTITLE9=Lime Green Pacer
TTITLE10=Try Me Again Around Midnight
TTITLE11=Write A Book About Me
TTITLE12=Faith, Hope And Love (not so far away)
EXTD=
EXTT0=
EXTT1=
EXTT2=
EXTT3=
EXTT4=
EXTT5=
EXTT6=
EXTT7=
EXTT8=
EXTT9=
EXTT10=
EXTT11=
EXTT12=
PLAYORDER=
